<svg width="20" height="20" viewBox="0 0 20 20" fill="none" xmlns="http://www.w3.org/2000/svg">
<path fill-rule="evenodd" clip-rule="evenodd" d="M9.9056 12.0117L9.9997 12.0117L10.2102 12.0124C11.819 12.023 15.4956 12.1855 15.4956 14.6775C15.4956 17.1531 11.9472 17.3146 10.2353 17.3251L9.60101 17.3251C7.99209 17.3145 4.31477 17.1522 4.31477 14.6633C4.31477 12.1846 7.99209 12.023 9.60101 12.0124L9.81151 12.0117C9.84416 12.0117 9.87555 12.0117 9.9056 12.0117ZM9.9056 13.2617C7.9256 13.2617 5.56477 13.505 5.56477 14.6633C5.56477 15.7955 7.78469 16.0601 9.72463 16.0751L9.9056 16.0758C11.8856 16.0758 14.2456 15.8333 14.2456 14.6775C14.2456 13.5075 11.8856 13.2617 9.9056 13.2617ZM16.5336 11.6735C18.5528 11.976 18.9769 12.9243 18.9769 13.6668C18.9769 14.1202 18.7986 14.9477 17.6069 15.4018C17.5336 15.4293 17.4586 15.4427 17.3844 15.4427C17.1328 15.4427 16.8953 15.2893 16.8003 15.0402C16.6769 14.7177 16.8394 14.356 17.1619 14.2335C17.7269 14.0185 17.7269 13.781 17.7269 13.6668C17.7269 13.3018 17.2628 13.0468 16.3478 12.9102C16.0069 12.8585 15.7711 12.541 15.8219 12.1985C15.8728 11.8568 16.1894 11.6293 16.5336 11.6735ZM3.98844 12.1985C4.03927 12.541 3.80344 12.8585 3.4626 12.9102C2.5476 13.0468 2.08344 13.3018 2.08344 13.6668C2.08344 13.781 2.08344 14.0177 2.64927 14.2335C2.97177 14.356 3.13427 14.7177 3.01094 15.0402C2.91594 15.2893 2.67844 15.4427 2.42677 15.4427C2.3526 15.4427 2.2776 15.4293 2.20427 15.4018C1.01177 14.9468 0.833435 14.1193 0.833435 13.6668C0.833435 12.9252 1.2576 11.976 3.2776 11.6735C3.62177 11.6302 3.93677 11.8568 3.98844 12.1985ZM9.9056 3.33334C12.0056 3.33334 13.7131 5.04168 13.7131 7.14084C13.7131 9.24001 12.0056 10.9483 9.9056 10.9483H9.8831C8.86644 10.945 7.91394 10.5467 7.2006 9.82668C6.4856 9.10751 6.09477 8.15251 6.0989 7.13834C6.0989 5.04168 7.80644 3.33334 9.9056 3.33334ZM9.9056 4.58334C8.4956 4.58334 7.34892 5.73084 7.34892 7.14084C7.34644 7.82418 7.6081 8.46334 8.08727 8.94584C8.56644 9.42834 9.20477 9.69584 9.88477 9.69834L9.9056 10.3233V9.69834C11.3156 9.69834 12.4631 8.55168 12.4631 7.14084C12.4631 5.73084 11.3156 4.58334 9.9056 4.58334ZM15.0631 4.14959C16.5281 4.39043 17.5923 5.64376 17.5923 7.12959C17.5889 8.62543 16.4714 9.90876 14.9923 10.1163C14.9631 10.1204 14.9339 10.1221 14.9056 10.1221C14.5989 10.1221 14.3314 9.89626 14.2873 9.58376C14.2398 9.24126 14.4773 8.92543 14.8198 8.87793C15.6864 8.75626 16.3406 8.00459 16.3423 7.12793C16.3423 6.25876 15.7189 5.52376 14.8598 5.38293C14.5198 5.32709 14.2889 5.00543 14.3448 4.66459C14.4014 4.32376 14.7206 4.09543 15.0631 4.14959ZM5.46644 4.66459C5.52227 5.00543 5.29144 5.32709 4.95144 5.38293C4.09227 5.52376 3.46894 6.25876 3.46894 7.12959C3.4706 8.00459 4.12477 8.75709 4.9906 8.87793C5.3331 8.92543 5.5706 9.24126 5.5231 9.58376C5.47894 9.89626 5.21144 10.1221 4.90477 10.1221C4.87644 10.1221 4.84727 10.1204 4.8181 10.1163C3.33894 9.90876 2.22227 8.62543 2.21894 7.13126C2.21894 5.64376 3.2831 4.39043 4.7481 4.14959C5.09894 4.09459 5.40977 4.32543 5.46644 4.66459Z" fill="#949494"/>
</svg>
