<svg width="17" height="15" viewBox="0 0 17 15" fill="none" xmlns="http://www.w3.org/2000/svg">
<path d="M0 7.72571C0 7.34601 0.282154 7.03221 0.648229 6.98255L0.75 6.97571L13.934 6.97631L9.17101 2.23278C8.87749 1.94051 8.87647 1.46564 9.16873 1.17212C9.43442 0.905279 9.85103 0.880176 10.1451 1.0974L10.2294 1.16983L16.2794 7.19383C16.3181 7.23236 16.3517 7.27405 16.3802 7.31808C16.3883 7.33134 16.3965 7.34489 16.4042 7.35873C16.4114 7.37058 16.4178 7.38289 16.4239 7.39534C16.4324 7.41345 16.4407 7.43216 16.4482 7.45125C16.4543 7.46597 16.4594 7.48028 16.464 7.49471C16.4696 7.51261 16.4749 7.53168 16.4796 7.55103C16.483 7.56455 16.4857 7.57756 16.4881 7.59062C16.4914 7.61005 16.4943 7.63016 16.4963 7.65051C16.498 7.66602 16.4991 7.6814 16.4997 7.69679C16.4998 7.70612 16.5 7.71589 16.5 7.72571L16.4996 7.75476C16.4991 7.76948 16.498 7.78418 16.4966 7.79886L16.5 7.72571C16.5 7.77303 16.4956 7.81934 16.4872 7.86424C16.4853 7.87496 16.483 7.88597 16.4804 7.89693C16.4751 7.91951 16.4689 7.94125 16.4618 7.96256C16.4584 7.97315 16.4543 7.98447 16.45 7.9957C16.4412 8.01827 16.4317 8.03978 16.4212 8.06073C16.4163 8.07059 16.4109 8.0809 16.4052 8.09111C16.3958 8.10777 16.3861 8.1236 16.3759 8.13903C16.3687 8.14995 16.3607 8.16132 16.3524 8.17251L16.3459 8.18115C16.3257 8.20755 16.3038 8.23257 16.2803 8.25604L16.2794 8.25673L10.2294 14.2817C9.93593 14.574 9.46106 14.573 9.16877 14.2795C8.90306 14.0127 8.87971 13.596 9.09818 13.3028L9.17097 13.2189L13.932 8.47631L0.75 8.47571C0.335786 8.47571 0 8.13992 0 7.72571Z" fill="#4E4E4E"/>
</svg>
