<svg width="20" height="20" viewBox="0 0 20 20" fill="none" xmlns="http://www.w3.org/2000/svg">
<path fill-rule="evenodd" clip-rule="evenodd" d="M16.1538 7.26674C16.498 7.29508 16.7547 7.59591 16.7272 7.94008C16.7222 7.99674 16.2705 13.5892 16.0105 15.9351C15.8488 17.3909 14.8872 18.2767 13.4355 18.3034C12.3247 18.3226 11.253 18.3334 10.2055 18.3334C9.07633 18.3334 7.9755 18.3209 6.88633 18.2984C5.493 18.2709 4.52883 17.3676 4.37133 15.9409C4.10883 13.5742 3.65967 7.99591 3.6555 7.94008C3.62717 7.59591 3.88383 7.29424 4.228 7.26674C4.56717 7.25758 4.87383 7.49591 4.90133 7.83924C4.90399 7.87541 5.08762 10.1534 5.28772 12.4073L5.32791 12.8571C5.42869 13.9774 5.53085 15.0539 5.61383 15.8034C5.703 16.6142 6.1405 17.0326 6.91217 17.0484C8.9955 17.0926 11.1213 17.0951 13.413 17.0534C14.233 17.0376 14.6763 16.6276 14.768 15.7976C15.0263 13.4692 15.4763 7.89591 15.4813 7.83924C15.5088 7.49591 15.813 7.25591 16.1538 7.26674ZM11.9545 1.66699C12.7195 1.66699 13.392 2.18283 13.5895 2.92199L13.8012 3.97283C13.8696 4.3173 14.1719 4.56887 14.5219 4.5744L17.2567 4.57449C17.6017 4.57449 17.8817 4.85449 17.8817 5.19949C17.8817 5.54449 17.6017 5.82449 17.2567 5.82449L14.5463 5.82437C14.5421 5.82445 14.5379 5.82449 14.5337 5.82449L14.5133 5.82366L5.86802 5.82439C5.86129 5.82446 5.85457 5.82449 5.84783 5.82449L5.835 5.82366L3.125 5.82449C2.78 5.82449 2.5 5.54449 2.5 5.19949C2.5 4.85449 2.78 4.57449 3.125 4.57449L5.85917 4.57366L5.94335 4.56833C6.25692 4.52765 6.51753 4.28949 6.58117 3.97283L6.78367 2.95949C6.9895 2.18283 7.662 1.66699 8.427 1.66699H11.9545ZM11.9545 2.91699H8.427C8.227 2.91699 8.05117 3.05116 8.00033 3.24366L7.80617 4.21866C7.78149 4.34216 7.74556 4.46117 7.69957 4.57472H12.6822C12.6361 4.46117 12.6001 4.34216 12.5753 4.21866L12.3728 3.20533C12.3303 3.05116 12.1545 2.91699 11.9545 2.91699Z" fill="#FF3743"/>
</svg>
