<svg width="299" height="137" viewBox="0 0 299 137" fill="none" xmlns="http://www.w3.org/2000/svg">
<path d="M130.266 39.3773C136.192 42.0524 141.34 45.7714 145.588 50.4492C147.357 52.3977 148.909 54.4899 150.222 56.6966C151.523 54.3931 153.058 52.2081 154.81 50.172C158.808 45.5243 163.882 41.84 169.911 39.2043C164.411 27.6417 153.668 17.5509 150.079 14.3754C146.496 17.4887 135.818 27.3993 130.266 39.3773ZM150.561 86.0799C151.31 83.0962 152.771 75.2632 150.291 66.5914C147.846 75.2673 149.033 83.0557 149.679 86.0799H150.561ZM152.396 60.9488C157.878 73.6294 154.746 85.7474 154.006 88.2142L155.937 86.7628C156.116 86.6261 174.127 72.6923 173.182 51.0999C173.068 48.4861 172.475 45.6963 171.417 42.785C165.95 45.1856 161.36 48.5181 157.757 52.7072C155.588 55.2279 153.787 57.9976 152.396 60.9488ZM128.788 42.9727C127.156 47.5357 126.552 51.8921 126.993 55.9429C128.159 66.6592 131.174 74.3896 144.414 86.9033L146.336 88.7203L146.298 88.5949C146.257 88.465 142.238 75.1615 148.13 60.9836C146.73 58.1444 144.909 55.4831 142.71 53.0619C138.851 48.8129 134.174 45.4243 128.788 42.9727ZM109.621 38.6003C108.194 43.2602 104.023 59.6385 110.802 73.6885C114.922 82.2282 124.015 88.0788 126.579 89.6034C128.512 89.0821 133.094 87.8556 134.149 87.6495C135.799 87.3267 137.425 87.0696 138.814 86.8738C127.15 75.1311 124.308 67.1929 123.129 56.363C122.619 51.6803 123.312 46.6911 125.189 41.5116C118.325 39.0448 112.353 38.6385 109.621 38.6003ZM161.556 86.9551C164.434 87.4241 168.591 88.2386 173.671 89.6177C176.681 88.0384 188.686 80.9749 191.857 67.328C194.885 54.2895 191.765 42.3762 190.581 38.61C188.05 38.6591 181.874 39.0399 175.035 41.3773C176.251 44.6933 176.933 47.9 177.066 50.9304C177.842 68.6605 167.112 81.5236 161.556 86.9551ZM125.385 93.4005C125.258 93.3316 112.63 86.4235 107.301 75.3766C98.6225 57.3885 106.307 36.2081 106.386 35.9965L106.824 34.808L108.091 34.7323C108.102 34.7313 108.475 34.7101 109.138 34.7101C111.84 34.7101 118.732 35.0356 126.669 37.9157C133.769 22.4668 148.725 10.4244 148.88 10.3008L150.109 9.32355L151.323 10.3173C151.477 10.4437 166.515 22.8378 173.533 37.7871C181.709 34.9485 189.062 34.7169 191.212 34.7169C191.75 34.7169 192.051 34.7299 192.077 34.7313L193.329 34.7915L193.787 35.9664C193.848 36.124 199.571 51.2927 195.643 68.2079C191.627 85.4959 174.856 93.3777 174.688 93.4555L174.038 93.7517L173.356 93.5621C163.572 90.8488 157.205 90.2757 156.938 90.2524L153.409 89.9633L153.408 89.9671H146.719L146.71 89.9364L143.256 90.2519C143.087 90.2676 139.048 90.6519 134.894 91.464C133.992 91.6405 129.218 92.915 126.819 93.5643L126.07 93.7699L125.385 93.4005Z" fill="#41C5AE"/>
<path d="M128.083 40.2343C133.533 42.4773 139.324 46.0092 144.365 51.5603C146.929 54.3826 148.844 57.3189 150.259 60.2462C151.656 57.2224 153.542 54.18 156.063 51.25C160.801 45.7415 166.587 42.2652 172.119 40.075C166.051 25.9522 151.867 13.6975 150.09 12.1995C148.313 13.6633 134.251 25.5667 128.083 40.2343ZM148.376 87.7323H151.818C152.338 86.0675 155.729 74.1025 150.269 61.6628C145.001 74.1578 147.913 86.0345 148.376 87.7323ZM108.417 36.956C107.704 39.0265 101.486 58.18 109.314 74.4065C114.09 84.3054 125.171 90.7188 126.346 91.3778C127.286 91.1234 133.308 89.4974 134.466 89.2715C137.832 88.613 141.084 88.2322 142.419 88.0903C129.065 75.3542 125.984 67.3165 124.772 56.1847C124.193 50.8594 125.3 45.5519 127.327 40.5548C117.978 36.8347 109.764 36.9115 108.417 36.956ZM157.84 88.0996C159.799 88.3228 165.677 89.1207 173.85 91.3797C175.172 90.7372 189.849 83.2769 193.466 67.7022C197.02 52.4008 192.389 38.6772 191.772 36.9576C190.41 36.927 182.061 36.8944 172.882 40.4005C174.318 43.8703 175.26 47.4456 175.416 51.0029C176.32 71.661 160.992 85.4841 157.84 88.0996ZM126.272 92.0016L126.17 91.9466C126.048 91.8804 113.892 85.2349 108.79 74.6593C100.435 57.3422 107.859 36.7772 107.935 36.5717L108.001 36.3929L108.19 36.3815C108.328 36.372 117.261 35.9229 127.55 40.0181C134.166 24.2896 149.703 11.759 149.911 11.5933L150.095 11.4468L150.277 11.596C150.473 11.756 166.15 24.7216 172.657 39.8654C182.749 36.0078 191.851 36.3742 191.991 36.3815L192.18 36.3907L192.249 36.567C192.305 36.7135 197.858 51.3702 194.035 67.8343C190.198 84.3499 174.16 91.8804 173.999 91.9545L173.901 91.9989L173.799 91.9705C163.729 89.1782 157.147 88.6124 157.082 88.6067L156.317 88.5441L156.93 88.0835C157.119 87.9414 175.822 73.617 174.833 51.0279C174.681 47.5361 173.756 44.0222 172.344 40.6094C166.885 42.7705 161.178 46.1979 156.505 51.6303C153.898 54.6604 151.98 57.8131 150.584 60.9384C156.852 74.6563 152.362 87.9566 152.305 88.1199L152.237 88.3152H147.94L147.877 88.1099C147.827 87.9471 143.899 74.7429 149.945 60.9441C148.534 57.9172 146.586 54.8717 143.934 51.9517C138.958 46.4724 133.242 42.9861 127.861 40.771C125.869 45.6859 124.783 50.8977 125.351 56.122C126.562 67.2389 129.667 75.2381 143.28 88.1047L143.749 88.5482L143.107 88.6067C143.065 88.6108 138.917 88.9949 134.578 89.843C133.368 90.0798 126.454 91.9523 126.384 91.971L126.272 92.0016Z" fill="white"/>
<path d="M150.247 4.02973C149.836 4.02973 149.503 4.36333 149.503 4.77315C149.503 5.18351 149.836 5.51685 150.247 5.51685C150.656 5.51685 150.99 5.18351 150.99 4.77315C150.99 4.36333 150.656 4.02973 150.247 4.02973ZM150.247 9.4043C147.693 9.4043 145.615 7.32699 145.615 4.77315C145.615 2.21985 147.693 0.142277 150.247 0.142277C152.8 0.142277 154.877 2.21985 154.877 4.77315C154.877 7.32699 152.8 9.4043 150.247 9.4043Z" fill="#41C5AE"/>
<path d="M150.247 2.37732C148.926 2.37732 147.85 3.45191 147.85 4.77304C147.85 6.0939 148.926 7.16903 150.247 7.16903C151.568 7.16903 152.642 6.0939 152.642 4.77304C152.642 3.45191 151.568 2.37732 150.247 2.37732ZM150.247 7.75189C148.604 7.75189 147.268 6.41557 147.268 4.77304C147.268 3.13078 148.604 1.79446 150.247 1.79446C151.889 1.79446 153.225 3.13078 153.225 4.77304C153.225 6.41557 151.889 7.75189 150.247 7.75189Z" fill="white"/>
<path d="M194.213 36.8973C192.094 36.8973 190.369 35.1726 190.369 33.0532C190.369 30.9336 192.094 29.2089 194.213 29.2089C196.332 29.2089 198.057 30.9336 198.057 33.0532C198.057 35.1726 196.332 36.8973 194.213 36.8973Z" fill="#41C5AE"/>
<path d="M194.211 31.4439C193.324 31.4439 192.602 32.1656 192.602 33.0531C192.602 33.9402 193.324 34.662 194.211 34.662C195.098 34.662 195.82 33.9402 195.82 33.0531C195.82 32.1656 195.098 31.4439 194.211 31.4439ZM194.211 35.2448C193.002 35.2448 192.02 34.2614 192.02 33.0531C192.02 31.8445 193.002 30.861 194.211 30.861C195.419 30.861 196.403 31.8445 196.403 33.0531C196.403 34.2614 195.419 35.2448 194.211 35.2448Z" fill="white"/>
<path d="M105.844 36.8973C103.724 36.8973 102 35.1726 102 33.0532C102 30.9336 103.724 29.2089 105.844 29.2089C107.963 29.2089 109.688 30.9336 109.688 33.0532C109.688 35.1726 107.963 36.8973 105.844 36.8973Z" fill="#41C5AE"/>
<path d="M105.844 31.4439C104.957 31.4439 104.235 32.1656 104.235 33.0531C104.235 33.9402 104.957 34.662 105.844 34.662C106.731 34.662 107.453 33.9402 107.453 33.0531C107.453 32.1656 106.731 31.4439 105.844 31.4439ZM105.844 35.2448C104.635 35.2448 103.652 34.2614 103.652 33.0531C103.652 31.8445 104.635 30.861 105.844 30.861C107.052 30.861 108.036 31.8445 108.036 33.0531C108.036 34.2614 107.052 35.2448 105.844 35.2448Z" fill="white"/>
<path d="M296.391 117.012C296.391 114.56 295.527 112.469 293.798 110.742C292.07 109.013 289.98 108.149 287.528 108.149C285.076 108.149 282.986 109.013 281.258 110.742C279.53 112.469 278.665 114.56 278.665 117.012C278.665 119.464 279.53 121.554 281.258 123.281C282.986 125.011 285.076 125.875 287.528 125.875C289.98 125.875 292.07 125.011 293.798 123.281C295.527 121.554 296.391 119.464 296.391 117.012ZM280.859 125.875C280.46 125.564 280.069 125.217 279.684 124.833C277.529 122.676 276.45 120.07 276.45 117.012C276.45 113.955 277.532 111.344 279.695 109.179C281.86 107.016 284.47 105.933 287.528 105.933C290.586 105.933 293.197 107.016 295.36 109.179C297.525 111.344 298.606 113.955 298.606 117.012C298.606 120.07 297.525 122.681 295.36 124.844C293.197 127.008 290.586 128.09 287.528 128.09H251.748L253.964 125.875H280.859Z" fill="#41C5AE"/>
<path d="M202.786 125.922V112.581H205.001V125.922C205.001 128.979 203.92 131.589 201.755 133.754C199.592 135.917 196.981 137 193.923 137H189.492L191.707 134.784H193.923C196.376 134.784 198.464 133.92 200.193 132.192C201.922 130.464 202.786 128.374 202.786 125.922Z" fill="#41C5AE"/>
<path d="M270.752 117.309C270.752 112.611 266.931 108.789 262.234 108.789C257.536 108.789 253.714 112.611 253.714 117.309V125.827H262.234C266.931 125.827 270.752 122.005 270.752 117.309ZM251.451 128.09V117.309C251.451 111.363 256.289 106.526 262.234 106.526C268.179 106.526 273.015 111.363 273.015 117.309C273.015 123.254 268.179 128.09 262.234 128.09H251.451Z" fill="#41C5AE"/>
<path d="M253.667 128.09H251.451V97.0711L253.667 99.286V128.09Z" fill="#41C5AE"/>
<path d="M272.916 125.874V128.09H241.896L244.112 125.874H272.916Z" fill="#41C5AE"/>
<path d="M213.787 116.808V112.518H216.002V116.808C216.002 119.261 216.866 121.351 218.595 123.078C220.242 124.727 222.219 125.589 224.525 125.666C224.638 125.67 234.933 125.671 235.047 125.671C237.499 125.671 239.59 124.807 241.318 123.078C243.046 121.351 243.91 119.261 243.91 116.808V114.734L246.126 112.518V116.808C246.126 119.867 245.043 122.477 242.88 124.641C240.716 126.805 238.105 127.886 235.047 127.886C234.91 127.886 224.59 127.885 224.454 127.88C221.572 127.787 219.098 126.707 217.034 124.641C214.868 122.477 213.787 119.867 213.787 116.808Z" fill="#41C5AE"/>
<path d="M228.846 134.571H231.061V136.786H228.846V134.571Z" fill="#41C5AE"/>
<path d="M202.783 105.935H204.998V108.15H202.783V105.935Z" fill="#41C5AE"/>
<path d="M171.471 134.571H173.686V136.786H171.471V134.571Z" fill="#41C5AE"/>
<path d="M181.933 136.786H184.917L187.174 134.571H181.933H178.949V136.786H181.933Z" fill="#41C5AE"/>
<path d="M149.261 136.786H152.245L154.503 134.571H149.261H146.277V136.786H149.261Z" fill="#41C5AE"/>
<path d="M143.692 136.78H133.895C130.622 136.78 127.546 135.502 125.235 133.183C122.924 130.865 121.658 127.786 121.67 124.511C121.694 117.794 127.179 112.331 133.895 112.331H146.101V126.978L149.976 126.96C154.46 126.96 158.102 123.317 158.102 118.839V112.698H160.365V118.839C160.365 124.565 155.707 129.223 149.982 129.223L143.838 129.251V114.593H133.895C128.422 114.593 123.953 119.046 123.933 124.519C123.923 127.187 124.955 129.697 126.837 131.587C128.721 133.476 131.227 134.517 133.895 134.517H143.692V136.78Z" fill="#41C5AE"/>
<path d="M178.949 128.662L181.201 126.399L186.214 126.375C190.697 126.375 194.34 122.732 194.34 118.254V112.697H196.603V118.254C196.603 123.98 191.945 128.638 186.219 128.638L178.949 128.662Z" fill="#41C5AE"/>
<path d="M172.631 128.661C170.068 128.661 167.654 127.672 165.824 125.87C163.972 124.045 162.945 121.608 162.93 119.008L162.814 97.0415L165.077 99.2857L165.193 118.997C165.204 120.99 165.992 122.86 167.412 124.258C168.833 125.658 170.729 126.412 172.705 126.399C174.693 126.38 176.556 125.587 177.948 124.168C179.34 122.748 180.096 120.87 180.077 118.882L180.001 112.71L182.264 112.683L182.34 118.858C182.364 121.453 181.379 123.9 179.564 125.752C177.748 127.604 175.32 128.637 172.727 128.661H172.631Z" fill="#41C5AE"/>
<path d="M40.9629 117.371C40.9629 114.919 40.0987 112.829 38.3703 111.101C36.642 109.373 34.5523 108.509 32.0997 108.509C29.6479 108.509 27.5574 109.373 25.8299 111.101C24.1015 112.829 23.2373 114.919 23.2373 117.371C23.2373 119.824 24.1015 121.913 25.8299 123.641C27.5574 125.37 29.6479 126.234 32.0997 126.234C34.5523 126.234 36.642 125.37 38.3703 123.641C40.0987 121.913 40.9629 119.824 40.9629 117.371ZM25.4308 126.234C25.0318 125.924 24.6405 125.577 24.256 125.193C22.1011 123.036 21.0215 120.429 21.0215 117.371C21.0215 114.313 22.1037 111.703 24.2671 109.539C26.4315 107.375 29.0429 106.293 32.0997 106.293C35.1582 106.293 37.7688 107.375 39.9322 109.539C42.0965 111.703 43.1787 114.313 43.1787 117.371C43.1787 120.429 42.0965 123.04 39.9322 125.204C37.7688 127.368 35.1582 128.449 32.0997 128.449H14.4222L14.375 126.234H25.4308Z" fill="#41C5AE"/>
<path d="M73.5645 128.599C78.3994 128.599 82.3324 124.666 82.3324 119.831V116.767L80.1226 117.446L80.0703 119.831C80.0703 123.418 77.1516 126.337 73.5645 126.337V128.599Z" fill="#41C5AE"/>
<path d="M13.2939 125.832V112.491H15.5097V125.832C15.5097 128.889 14.4276 131.499 12.2633 133.664C10.0998 135.827 7.48927 136.91 4.43074 136.91H0L2.2158 134.693H4.43074C6.8834 134.693 8.97305 133.83 10.7014 132.102C12.4298 130.374 13.2939 128.284 13.2939 125.832Z" fill="#41C5AE"/>
<path d="M111.596 105.859H113.811V108.074H111.596V105.859Z" fill="#41C5AE"/>
<path d="M30.998 97.1194H33.2138V99.3351H30.998V97.1194Z" fill="#41C5AE"/>
<path d="M87.1928 136.864H90.1767L92.4337 134.649H87.1928H84.209V136.864H87.1928Z" fill="#41C5AE"/>
<path d="M65.7978 125.658V117.974H68.0128V125.658C68.0128 128.715 66.9315 131.326 64.7663 133.49C62.6037 135.654 59.9923 136.736 56.9346 136.736H52.5039L54.7188 134.52H56.9346C59.3873 134.52 61.4761 133.656 63.2045 131.928C64.9337 130.2 65.7978 128.109 65.7978 125.658Z" fill="#41C5AE"/>
<path d="M96.1523 128.303L98.4042 126.04L103.417 126.016C107.9 126.016 111.543 122.373 111.543 117.895V112.337H113.806V117.895C113.806 123.62 109.148 128.279 103.422 128.279L96.1523 128.303Z" fill="#41C5AE"/>
<path d="M89.8323 128.303C87.2689 128.303 84.8549 127.314 83.0252 125.512C81.1733 123.687 80.1461 121.25 80.1315 118.65L80.0156 96.6833L82.2786 98.9274L82.3945 118.639C82.4056 120.631 83.1934 122.501 84.6129 123.9C86.034 125.3 87.9305 126.053 89.9061 126.04C91.8953 126.022 93.7567 125.229 95.1495 123.809C96.5423 122.39 97.2975 120.512 97.2778 118.524L97.2022 112.352L99.4652 112.325L99.5408 118.499C99.5656 121.095 98.5805 123.541 96.7654 125.393C94.9487 127.245 92.5218 128.279 89.9284 128.303H89.8323Z" fill="#41C5AE"/>
<path d="M56.8696 108.505C51.9403 108.505 47.9283 112.517 47.9283 117.446C47.9283 122.375 51.9403 126.387 56.8696 126.387H65.8092V117.446C65.8092 112.517 61.7989 108.505 56.8696 108.505ZM68.0207 128.599H56.8696C50.7199 128.599 45.7168 123.596 45.7168 117.446C45.7168 111.296 50.7199 106.293 56.8696 106.293C63.0201 106.293 68.0207 111.296 68.0207 117.446V128.599Z" fill="#41C5AE"/>
<path d="M73.5718 128.599H66.9141V126.387H73.5718V128.599Z" fill="#41C5AE"/>
</svg>
