<svg width="48" height="48" viewBox="0 0 48 48" fill="none" xmlns="http://www.w3.org/2000/svg">
<path opacity="0.4" d="M39.9395 20.0001V36.0001C39.9395 42.0001 37.9395 44.0001 31.9395 44.0001H15.9395C9.93945 44.0001 7.93945 42.0001 7.93945 36.0001V20.0001H39.9395Z" fill="#F03861"/>
<path d="M43 13.9999V15.9999C43 18.1999 41.94 19.9999 39 19.9999H9C5.94 19.9999 5 18.1999 5 15.9999V13.9999C5 11.7999 5.94 9.99994 9 9.99994H39C41.94 9.99994 43 11.7999 43 13.9999Z" fill="#41C5AE"/>
<path opacity="0.4" d="M23.2796 9.99994H12.2396C11.5596 9.25994 11.5796 8.11994 12.2996 7.39994L15.1396 4.55994C15.8796 3.81994 17.0996 3.81994 17.8396 4.55994L23.2796 9.99994Z" fill="#F03861"/>
<path opacity="0.4" d="M35.7392 9.99994H24.6992L30.1392 4.55994C30.8792 3.81994 32.0992 3.81994 32.8392 4.55994L35.6792 7.39994C36.3992 8.11994 36.4192 9.25994 35.7392 9.99994Z" fill="#F03861"/>
<path opacity="0.6" d="M17.8789 20.0001V30.2801C17.8789 31.8801 19.6389 32.8201 20.9789 31.9601L22.8589 30.7201C23.5389 30.2801 24.3989 30.2801 25.0589 30.7201L26.8389 31.9201C28.1589 32.8001 29.9389 31.8601 29.9389 30.2601V20.0001H17.8789Z" fill="#66CBBA"/>
</svg>
