<svg width="24" height="24" viewBox="0 0 24 24" fill="none" xmlns="http://www.w3.org/2000/svg">
<path d="M19.9707 10H3.9707V18C3.9707 21 4.9707 22 7.97071 22H15.9707C18.9707 22 19.9707 21 19.9707 18V10Z" stroke="#949494" stroke-width="1.2" stroke-miterlimit="10" stroke-linecap="round" stroke-linejoin="round"/>
<path d="M21.501 6.99966V7.99966C21.501 9.09966 20.971 9.99966 19.501 9.99966H4.50098C2.97098 9.99966 2.50098 9.09966 2.50098 7.99966V6.99966C2.50098 5.89966 2.97098 4.99966 4.50098 4.99966H19.501C20.971 4.99966 21.501 5.89966 21.501 6.99966Z" stroke="#949494" stroke-width="1.2" stroke-miterlimit="10" stroke-linecap="round" stroke-linejoin="round"/>
<path d="M11.6408 4.99975H6.12076C5.78076 4.62976 5.79076 4.05976 6.15076 3.69976L7.57076 2.27976C7.94076 1.90976 8.55076 1.90976 8.92076 2.27976L11.6408 4.99975Z" stroke="#949494" stroke-width="1.2" stroke-miterlimit="10" stroke-linecap="round" stroke-linejoin="round"/>
<path d="M17.8706 4.99975H12.3506L15.0706 2.27976C15.4406 1.90976 16.0506 1.90976 16.4206 2.27976L17.8406 3.69976C18.2006 4.05976 18.2106 4.62976 17.8706 4.99975Z" stroke="#949494" stroke-width="1.2" stroke-miterlimit="10" stroke-linecap="round" stroke-linejoin="round"/>
<path d="M8.94043 10V15.14C8.94043 15.94 9.82043 16.41 10.4904 15.98L11.4304 15.36C11.7704 15.14 12.2004 15.14 12.5304 15.36L13.4204 15.96C14.0804 16.4 14.9704 15.93 14.9704 15.13V10H8.94043Z" stroke="#949494" stroke-width="1.2" stroke-miterlimit="10" stroke-linecap="round" stroke-linejoin="round"/>
</svg>
