<svg width="125" height="125" viewBox="0 0 125 125" fill="none" xmlns="http://www.w3.org/2000/svg">
<circle cx="62.5" cy="62.5" r="62.5" fill="#F03861" fill-opacity="0.02"/>
<path d="M50.2195 48.8388C53.7876 50.4496 56.8871 52.689 59.4451 55.5057C60.5106 56.6789 61.4446 57.9387 62.2355 59.2675C63.0186 57.8804 63.9433 56.5648 64.9982 55.3388C67.4054 52.5402 70.4606 50.3217 74.0909 48.7346C70.7792 41.7724 64.3104 35.6962 62.1491 33.7841C59.9917 35.6588 53.562 41.6264 50.2195 48.8388ZM62.4398 76.9604C62.8904 75.1637 63.7702 70.4472 62.2773 65.2255C60.805 70.4496 61.5196 75.1394 61.9082 76.9604H62.4398ZM63.5443 61.8279C66.8454 69.4634 64.9598 76.7601 64.5143 78.2455L65.6766 77.3716C65.7844 77.2893 76.6294 68.8991 76.0605 55.8975C75.992 54.3236 75.6349 52.6437 74.9981 50.8907C71.706 52.3362 68.9422 54.3429 66.7726 56.8653C65.4667 58.3831 64.382 60.0509 63.5443 61.8279ZM49.3294 51.0037C48.3466 53.7513 47.9829 56.3745 48.2486 58.8136C48.9507 65.2664 50.7661 69.9212 58.7385 77.4562L59.8955 78.5502L59.8725 78.4748C59.8482 78.3965 57.4282 70.3859 60.976 61.8488C60.1327 60.1392 59.0362 58.5368 57.7124 57.0789C55.3887 54.5204 52.5722 52.4799 49.3294 51.0037ZM37.7881 48.3709C36.9289 51.1768 34.4174 61.0389 38.4988 69.499C40.9798 74.6411 46.4551 78.164 47.999 79.082C49.1628 78.7681 51.9222 78.0296 52.5572 77.9055C53.5508 77.7111 54.5298 77.5563 55.3662 77.4384C48.3428 70.3677 46.6316 65.5878 45.9215 59.0666C45.6148 56.247 46.0321 53.2428 47.1624 50.124C43.0289 48.6386 39.4328 48.394 37.7881 48.3709ZM69.0605 77.4874C70.7929 77.7697 73.2965 78.2602 76.3549 79.0906C78.1675 78.1396 85.3965 73.8864 87.3055 65.6691C89.1287 57.818 87.25 50.6446 86.5371 48.3768C85.0131 48.4064 81.2945 48.6357 77.1767 50.0431C77.9085 52.0398 78.3194 53.9707 78.3991 55.7954C78.8664 66.4715 72.4058 74.2168 69.0605 77.4874ZM47.2803 81.3684C47.2035 81.3269 39.6001 77.1673 36.3911 70.5155C31.1654 59.6841 35.7924 46.9305 35.8397 46.8031L36.1038 46.0875L36.8665 46.0419C36.8734 46.0412 37.0981 46.0285 37.4974 46.0285C39.1243 46.0285 43.2743 46.2245 48.0531 47.9587C52.3282 38.6563 61.3342 31.4051 61.4274 31.3307L62.1674 30.7422L62.8984 31.3406C62.9913 31.4167 72.0462 38.8797 76.2719 47.8813C81.1954 46.1721 85.6224 46.0326 86.9175 46.0326C87.241 46.0326 87.4226 46.0404 87.4381 46.0412L88.1921 46.0775L88.468 46.785C88.5046 46.8799 91.9507 56.0136 89.5852 66.1989C87.1673 76.6087 77.0688 81.3547 76.9673 81.4015L76.5764 81.5799L76.1655 81.4657C70.274 79.8319 66.4401 79.4868 66.2797 79.4728L64.1548 79.2987L64.1541 79.301H60.1265L60.1208 79.2825L58.0411 79.4725C57.9392 79.4819 55.5073 79.7134 53.0058 80.2023C52.4629 80.3086 49.5879 81.0761 48.1437 81.467L47.6927 81.5908L47.2803 81.3684Z" fill="#F03861"/>
<path d="M48.9077 49.3611C52.1892 50.7117 55.6768 52.8384 58.7122 56.181C60.2555 57.8804 61.4087 59.6485 62.2607 61.4111C63.1021 59.5903 64.2379 57.7584 65.7558 55.9941C68.6089 52.6772 72.0927 50.584 75.4235 49.2652C71.7702 40.7613 63.2293 33.3822 62.1593 32.4802C61.0894 33.3616 52.6218 40.5292 48.9077 49.3611ZM61.127 77.9616H63.1997C63.5127 76.9592 65.5546 69.7545 62.2672 62.2641C59.0948 69.7879 60.848 76.9393 61.127 77.9616ZM37.0664 47.3871C36.6367 48.6338 32.8928 60.167 37.6065 69.9376C40.4823 75.8981 47.1547 79.7599 47.8622 80.1567C48.4279 80.0035 52.054 79.0245 52.7513 78.8884C54.7781 78.4919 56.7362 78.2626 57.5399 78.1772C49.4989 70.5082 47.6438 65.6684 46.9141 58.9655C46.5653 55.7589 47.2321 52.563 48.4529 49.5541C42.8234 47.3141 37.8773 47.3603 37.0664 47.3871ZM66.8258 78.1827C68.0054 78.3171 71.545 78.7976 76.4658 80.1579C77.262 79.771 86.0996 75.2788 88.2779 65.9006C90.4178 56.6871 87.6292 48.4235 87.2573 47.3881C86.4375 47.3696 81.4105 47.35 75.8831 49.4612C76.7479 51.5505 77.315 53.7033 77.409 55.8453C77.9531 68.2844 68.7237 76.6079 66.8258 78.1827ZM47.8176 80.5323L47.7559 80.4992C47.6822 80.4593 40.3628 76.4578 37.2907 70.0898C32.2597 59.6625 36.73 47.2795 36.7759 47.1557L36.8156 47.0481L36.9297 47.0412C37.0124 47.0355 42.3916 46.765 48.5867 49.2309C52.5704 39.7601 61.9262 32.215 62.0515 32.1152L62.162 32.027L62.2718 32.1168C62.3895 32.2132 71.8298 40.0203 75.7474 49.139C81.8242 46.8162 87.3049 47.0368 87.3896 47.0412L87.5034 47.0468L87.5449 47.1529C87.5787 47.2411 90.9223 56.0665 88.62 65.9802C86.3101 75.9249 76.6525 80.4593 76.5556 80.5039L76.497 80.5307L76.4353 80.5136C70.3715 78.8322 66.4084 78.4916 66.369 78.4881L65.909 78.4504L66.2777 78.1731C66.3919 78.0875 77.6533 69.4622 77.058 55.8604C76.9662 53.7579 76.4093 51.6419 75.5592 49.587C72.2719 50.8882 68.8356 52.9521 66.0218 56.2231C64.452 58.0476 63.2969 59.946 62.4565 61.8279C66.2309 70.088 63.5275 78.0967 63.4929 78.195L63.4517 78.3126H60.8648L60.8268 78.1889C60.7962 78.091 58.4313 70.1401 62.0716 61.8313C61.222 60.0087 60.0492 58.1749 58.4525 56.4166C55.456 53.1173 52.0141 51.0181 48.7745 49.6843C47.5749 52.6437 46.9207 55.782 47.263 58.9277C47.9917 65.6217 49.8615 70.4383 58.0588 78.1858L58.3411 78.4529L57.9542 78.4881C57.9291 78.4906 55.4313 78.7218 52.8185 79.2325C52.0903 79.3751 47.9269 80.5026 47.8851 80.5139L47.8176 80.5323Z" fill="white"/>
<path d="M62.2564 27.5522C62.0093 27.5522 61.8084 27.7531 61.8084 27.9999C61.8084 28.2469 62.0093 28.4477 62.2564 28.4477C62.5032 28.4477 62.7041 28.2469 62.7041 27.9999C62.7041 27.7531 62.5032 27.5522 62.2564 27.5522ZM62.2564 30.7885C60.7186 30.7885 59.4677 29.5376 59.4677 27.9999C59.4677 26.4624 60.7186 25.2114 62.2564 25.2114C63.7939 25.2114 65.0447 26.4624 65.0447 27.9999C65.0447 29.5376 63.7939 30.7885 62.2564 30.7885Z" fill="#F03861"/>
<path d="M62.2502 26.5637C61.4547 26.5637 60.8073 27.2108 60.8073 28.0063C60.8073 28.8016 61.4547 29.449 62.2502 29.449C63.0457 29.449 63.6927 28.8016 63.6927 28.0063C63.6927 27.2108 63.0457 26.5637 62.2502 26.5637ZM62.2502 29.8C61.261 29.8 60.4563 28.9953 60.4563 28.0063C60.4563 27.0174 61.261 26.2128 62.2502 26.2128C63.2389 26.2128 64.0435 27.0174 64.0435 28.0063C64.0435 28.9953 63.2389 29.8 62.2502 29.8Z" fill="white"/>
<path d="M88.7259 47.3455C87.4499 47.3455 86.4116 46.307 86.4116 45.0309C86.4116 43.7546 87.4499 42.716 88.7259 42.716C90.0022 42.716 91.0406 43.7546 91.0406 45.0309C91.0406 46.307 90.0022 47.3455 88.7259 47.3455Z" fill="#F03861"/>
<path d="M88.7287 44.0605C88.1947 44.0605 87.7601 44.4951 87.7601 45.0295C87.7601 45.5637 88.1947 45.9983 88.7287 45.9983C89.2629 45.9983 89.6977 45.5637 89.6977 45.0295C89.6977 44.4951 89.2629 44.0605 88.7287 44.0605ZM88.7287 46.3492C88.0012 46.3492 87.4093 45.7571 87.4093 45.0295C87.4093 44.3018 88.0012 43.7096 88.7287 43.7096C89.4563 43.7096 90.0486 44.3018 90.0486 45.0295C90.0486 45.7571 89.4563 46.3492 88.7287 46.3492Z" fill="white"/>
<path d="M35.515 47.3455C34.239 47.3455 33.2006 46.307 33.2006 45.0309C33.2006 43.7546 34.239 42.716 35.515 42.716C36.7913 42.716 37.8296 43.7546 37.8296 45.0309C37.8296 46.307 36.7913 47.3455 35.515 47.3455Z" fill="#F03861"/>
<path d="M35.5178 44.0605C34.9837 44.0605 34.5492 44.4951 34.5492 45.0295C34.5492 45.5637 34.9837 45.9983 35.5178 45.9983C36.052 45.9983 36.4867 45.5637 36.4867 45.0295C36.4867 44.4951 36.052 44.0605 35.5178 44.0605ZM35.5178 46.3492C34.7902 46.3492 34.1984 45.7571 34.1984 45.0295C34.1984 44.3018 34.7902 43.7096 35.5178 43.7096C36.2454 43.7096 36.8377 44.3018 36.8377 45.0295C36.8377 45.7571 36.2454 46.3492 35.5178 46.3492Z" fill="white"/>
<path d="M31.7948 98.34V93.4151H32.2166V99.647L28.4215 94.3891V99.3181H28V93.0863L31.7948 98.34Z" fill="#F35B70"/>
<path d="M33.3445 99.3155H32.923V95.099H33.3445V99.3155ZM32.923 93.4125H33.3445V93.8342H32.923V93.4125Z" fill="#F35B70"/>
<path d="M34.4723 99.3155H34.0508V93.4125L34.4723 93.8342V99.3155Z" fill="#F35B70"/>
<path d="M36.8624 98.894C37.329 98.894 37.7269 98.7295 38.0556 98.4004C38.3845 98.0717 38.549 97.674 38.549 97.2073C38.549 96.7407 38.3845 96.3428 38.0556 96.0141C37.7269 95.6852 37.329 95.5207 36.8624 95.5207C36.3957 95.5207 35.9982 95.6852 35.6693 96.0141C35.3402 96.3428 35.1757 96.7407 35.1757 97.2073C35.1757 97.674 35.3402 98.0717 35.6693 98.4004C35.9982 98.7295 36.3957 98.894 36.8624 98.894ZM36.8624 99.3155C36.2806 99.3155 35.7836 99.1097 35.372 98.6978C34.96 98.2861 34.7542 97.7893 34.7542 97.2073C34.7542 96.6254 34.96 96.1286 35.372 95.7167C35.7836 95.305 36.2806 95.099 36.8624 95.099C37.4443 95.099 37.941 95.305 38.353 95.7167C38.7646 96.1286 38.9707 96.6254 38.9707 97.2073C38.9707 97.7893 38.7646 98.2861 38.353 98.6978C37.941 99.1097 37.4443 99.3155 36.8624 99.3155Z" fill="#F35B70"/>
<path d="M41.3149 98.894C41.7815 98.894 42.1794 98.7295 42.5081 98.4004C42.837 98.0717 43.0015 97.674 43.0015 97.2073C43.0015 96.7407 42.837 96.3428 42.5081 96.0141C42.1794 95.6852 41.7815 95.5207 41.3149 95.5207C40.8482 95.5207 40.4507 95.6852 40.1217 96.0141C39.7927 96.3428 39.6282 96.7407 39.6282 97.2073C39.6282 97.674 39.7927 98.0717 40.1217 98.4004C40.4507 98.7295 40.8482 98.894 41.3149 98.894ZM41.3149 99.3155C40.733 99.3155 40.2361 99.1097 39.8245 98.6978C39.4125 98.2861 39.2067 97.7893 39.2067 97.2073C39.2067 96.6254 39.4125 96.1286 39.8245 95.7167C40.2361 95.305 40.733 95.099 41.3149 95.099C41.8968 95.099 42.3935 95.305 42.8055 95.7167C43.2171 96.1286 43.4232 96.6254 43.4232 97.2073C43.4232 97.7893 43.2171 98.2861 42.8055 98.6978C42.3935 99.1097 41.8968 99.3155 41.3149 99.3155Z" fill="#F35B70"/>
<path d="M45.8002 93.4125H46.6434L46.2218 93.8342H45.8002C45.3334 93.8342 44.9359 93.9986 44.607 94.3275C44.2779 94.6564 44.1134 95.0541 44.1134 95.5207V95.9424H46.2218V96.3641H44.1134V99.3155H43.6919V95.5207C43.6919 94.9388 43.8977 94.4422 44.3097 94.0303C44.7213 93.6186 45.2183 93.4125 45.8002 93.4125Z" fill="#F35B70"/>
<path d="M51.4966 97.2073V99.3155H51.075V97.2073C51.075 96.6254 51.2808 96.1287 51.6927 95.7168C52.1044 95.3051 52.6012 95.099 53.1833 95.099H54.0265L53.6048 95.5207H53.1833C52.7165 95.5207 52.3188 95.6852 51.9901 96.0141C51.661 96.343 51.4966 96.7407 51.4966 97.2073Z" fill="#F35B70"/>
<path d="M57.4016 98.894C57.8682 98.894 58.2661 98.7295 58.5948 98.4004C58.9237 98.0717 59.0882 97.674 59.0882 97.2073C59.0882 96.7407 58.9237 96.3428 58.5948 96.0141C58.2661 95.6852 57.8682 95.5207 57.4016 95.5207C56.9349 95.5207 56.5374 95.6852 56.2084 96.0141C55.8794 96.3428 55.7149 96.7407 55.7149 97.2073C55.7149 97.674 55.8794 98.0717 56.2084 98.4004C56.5374 98.7295 56.9349 98.894 57.4016 98.894ZM55.7149 95.9381C55.774 95.8622 55.84 95.7877 55.9132 95.7146C56.3236 95.3045 56.8197 95.099 57.4016 95.099C57.9835 95.099 58.4802 95.305 58.8922 95.7167C59.3038 96.1286 59.5099 96.6254 59.5099 97.2073C59.5099 97.7893 59.3038 98.2861 58.8922 98.6978C58.4802 99.1097 57.9835 99.3155 57.4016 99.3155C56.8197 99.3155 56.3228 99.1097 55.9112 98.6978C55.4992 98.2861 55.2934 97.7893 55.2934 97.2073V93.4125L55.7149 93.8342V95.9381Z" fill="#F35B70"/>
<path d="M63.526 96.9966C63.4837 96.6198 63.3235 96.2924 63.0454 96.0141C62.7165 95.6852 62.3187 95.5207 61.8521 95.5207C61.3855 95.5207 60.9878 95.6852 60.6589 96.0141C60.3806 96.2924 60.2204 96.6198 60.1783 96.9966H63.526ZM60.1783 97.4183C60.2204 97.795 60.3806 98.1223 60.6589 98.4004C60.9878 98.7295 61.3855 98.894 61.8521 98.894C62.3187 98.894 62.7165 98.7295 63.0454 98.4004C63.214 98.2319 63.3391 98.0449 63.4207 97.8398H63.8675C63.772 98.1574 63.5977 98.4427 63.3448 98.6957C62.9314 99.1089 62.434 99.3155 61.8521 99.3155C61.2702 99.3155 60.7734 99.1097 60.3617 98.6978C59.9498 98.2861 59.7438 97.7893 59.7438 97.2073C59.7438 96.6255 59.9498 96.1287 60.3617 95.7168C60.7734 95.3051 61.2702 95.099 61.8521 95.099C62.434 95.099 62.9308 95.3051 63.3426 95.7168C63.7544 96.1287 63.9605 96.6255 63.9605 97.2073C63.9605 97.2776 63.9575 97.3479 63.9518 97.4183H60.1783Z" fill="#F35B70"/>
<path d="M68.6859 97.2073V95.099H69.1075V97.2073C69.1075 97.674 69.2718 98.0717 69.6009 98.4004C69.9298 98.7295 70.3273 98.894 70.7942 98.894C71.2607 98.894 71.6585 98.7295 71.9874 98.4004C72.3162 98.0717 72.4806 97.674 72.4806 97.2073V95.5207L72.9025 95.099V97.2073C72.9025 97.7893 72.6964 98.2861 72.2847 98.6978C71.8728 99.1097 71.376 99.3155 70.7942 99.3155C70.2122 99.3155 69.7154 99.1097 69.3037 98.6978C68.8918 98.2861 68.6859 97.7893 68.6859 97.2073Z" fill="#F35B70"/>
<path d="M75.4737 98.894H75.8953L76.3169 99.3155H75.4737C74.8917 99.3155 74.3949 99.1097 73.9832 98.6978C73.5713 98.2861 73.3655 97.7893 73.3655 97.2073V93.4125H73.787V95.099H75.8953V95.5207H73.787V97.2073C73.787 97.674 73.9515 98.0717 74.2806 98.4004C74.6093 98.7295 75.007 98.894 75.4737 98.894Z" fill="#F35B70"/>
<path d="M80.5299 98.8921C80.5299 99.4738 80.3238 99.9706 79.912 100.383C79.5002 100.794 79.0034 101 78.4215 101C77.8396 101 77.3436 100.794 76.9332 100.381L77.2283 100.085C77.5572 100.414 77.9547 100.579 78.4215 100.579C78.8881 100.579 79.2859 100.414 79.6148 100.085C79.9436 99.7564 80.108 99.3587 80.108 98.8921V98.4745C80.0489 98.5505 79.9844 98.6236 79.9142 98.6939C79.5008 99.1069 79.0034 99.3136 78.4215 99.3136C77.8396 99.3136 77.3426 99.1079 76.9311 98.696C76.519 98.2843 76.3132 97.7875 76.3132 97.2054V95.0972H76.7349V97.2054C76.7349 97.6722 76.8994 98.0698 77.2283 98.3986C77.5572 98.7277 77.9547 98.8921 78.4215 98.8921C78.8881 98.8921 79.2859 98.7277 79.6148 98.3986C79.9436 98.0698 80.108 97.6722 80.108 97.2054V95.5188L80.5299 95.0972V98.8921Z" fill="#F35B70"/>
<path d="M85.0217 97.8736L85.4094 98.0421C85.3055 98.2811 85.1549 98.4991 84.9585 98.6957C84.5451 99.1087 84.0475 99.3155 83.4658 99.3155C82.8837 99.3155 82.3869 99.1097 81.9752 98.6978C81.5633 98.2861 81.3574 97.7893 81.3574 97.2073C81.3574 96.6254 81.5633 96.1286 81.9752 95.7167C82.3869 95.305 82.8837 95.099 83.4658 95.099C84.0475 95.099 84.5451 95.3045 84.9585 95.7146C85.1549 95.9143 85.3055 96.1335 85.4094 96.3726L85.0217 96.5411C84.94 96.35 84.8191 96.1743 84.6589 96.0141C84.3302 95.6852 83.9323 95.5207 83.4658 95.5207C82.999 95.5207 82.6013 95.6852 82.2726 96.0141C81.9435 96.3428 81.779 96.7407 81.779 97.2073C81.779 97.674 81.9435 98.0717 82.2726 98.4004C82.6013 98.7295 82.999 98.894 83.4658 98.894C83.9323 98.894 84.3302 98.7295 84.6589 98.4004C84.8191 98.2402 84.94 98.0647 85.0217 97.8736Z" fill="#F35B70"/>
<path d="M85.9993 99.3155H85.5776V93.4125L85.9993 93.8342V99.3155Z" fill="#F35B70"/>
<path d="M87.0965 99.3155H86.6748V95.099H87.0965V99.3155ZM86.675 93.4125H87.0966V93.8342H86.675V93.4125Z" fill="#F35B70"/>
<path d="M91.78 97.2073V99.3155H91.3581V97.2073C91.3581 96.7407 91.1938 96.343 90.8649 96.0141C90.536 95.6852 90.1382 95.5207 89.6716 95.5207C89.2048 95.5207 88.8073 95.6852 88.4784 96.0141C88.1495 96.343 87.985 96.7407 87.985 97.2073V98.894L87.5634 99.3155V97.2073C87.5634 96.6254 87.7693 96.1287 88.1812 95.7168C88.5929 95.3051 89.0897 95.099 89.6716 95.099C90.2535 95.099 90.7503 95.3051 91.1622 95.7168C91.5739 96.1287 91.78 96.6254 91.78 97.2073Z" fill="#F35B70"/>
<path d="M92.6659 99.3155H92.2443V95.099H92.6659V99.3155ZM92.2444 93.4125H92.6661V93.8342H92.2444V93.4125Z" fill="#F35B70"/>
<path d="M96.6123 97.8736L97 98.0421C96.8961 98.2811 96.7455 98.4991 96.5491 98.6957C96.1357 99.1087 95.6381 99.3155 95.0564 99.3155C94.4743 99.3155 93.9775 99.1097 93.5658 98.6978C93.1539 98.2861 92.9481 97.7893 92.9481 97.2073C92.9481 96.6254 93.1539 96.1286 93.5658 95.7167C93.9775 95.305 94.4743 95.099 95.0564 95.099C95.6381 95.099 96.1357 95.3045 96.5491 95.7146C96.7455 95.9143 96.8961 96.1335 97 96.3726L96.6123 96.5411C96.5306 96.35 96.4097 96.1743 96.2495 96.0141C95.9208 95.6852 95.5229 95.5207 95.0564 95.5207C94.5896 95.5207 94.1919 95.6852 93.8632 96.0141C93.5341 96.3428 93.3696 96.7407 93.3696 97.2073C93.3696 97.674 93.5341 98.0717 93.8632 98.4004C94.1919 98.7295 94.5896 98.894 95.0564 98.894C95.5229 98.894 95.9208 98.7295 96.2495 98.4004C96.4097 98.2402 96.5306 98.0647 96.6123 97.8736Z" fill="#F35B70"/>
<path d="M48.5004 95.5865C47.6064 95.5865 46.8792 96.3138 46.8792 97.2076C46.8792 98.1016 47.6064 98.829 48.5004 98.829H50.1215V97.2076C50.1215 96.3138 49.3943 95.5865 48.5004 95.5865ZM50.5522 99.2595H48.5004C47.369 99.2595 46.4485 98.339 46.4485 97.2076C46.4485 96.0761 47.369 95.1559 48.5004 95.1559C49.6319 95.1559 50.5522 96.0761 50.5522 97.2076V99.2595Z" fill="#F35B70"/>
<path d="M66.2997 95.5865C65.4057 95.5865 64.6783 96.3138 64.6783 97.2076C64.6783 98.1016 65.4057 98.829 66.2997 98.829H67.9208V97.2076C67.9208 96.3138 67.1935 95.5865 66.2997 95.5865ZM68.3514 99.2595H66.2997C65.1682 99.2595 64.2478 98.339 64.2478 97.2076C64.2478 96.0761 65.1682 95.1559 66.2997 95.1559C67.4311 95.1559 68.3514 96.0761 68.3514 97.2076V99.2595Z" fill="#F35B70"/>
<path d="M90.0771 87.2159C90.0771 86.7493 89.9126 86.3514 89.5836 86.0227C89.2548 85.6938 88.8571 85.5293 88.3904 85.5293C87.9238 85.5293 87.526 85.6938 87.1972 86.0227C86.8683 86.3514 86.7038 86.7493 86.7038 87.2159C86.7038 87.6826 86.8683 88.0803 87.1972 88.409C87.526 88.7381 87.9238 88.9026 88.3904 88.9026C88.8571 88.9026 89.2548 88.7381 89.5836 88.409C89.9126 88.0803 90.0771 87.6826 90.0771 87.2159ZM87.1213 88.9026C87.0453 88.8435 86.9709 88.7775 86.8977 88.7043C86.4876 88.2939 86.2822 87.7979 86.2822 87.2159C86.2822 86.6341 86.4881 86.1373 86.8998 85.7253C87.3117 85.3137 87.8085 85.1076 88.3904 85.1076C88.9724 85.1076 89.4692 85.3137 89.881 85.7253C90.2928 86.1373 90.4986 86.6341 90.4986 87.2159C90.4986 87.7979 90.2928 88.2947 89.881 88.7064C89.4692 89.1183 88.9724 89.3241 88.3904 89.3241H81.5813L82.003 88.9026H87.1213Z" fill="#F35B70"/>
<path d="M72.2671 88.9158V86.3769H72.6886V88.9158C72.6886 89.4975 72.4829 89.9943 72.071 90.4064C71.6593 90.8179 71.1623 91.024 70.5804 91.024H69.7372L70.1587 90.6024H70.5804C71.0472 90.6024 71.4447 90.4379 71.7736 90.109C72.1027 89.7802 72.2671 89.3824 72.2671 88.9158Z" fill="#F35B70"/>
<path d="M85.1994 87.2726C85.1994 86.3786 84.4722 85.6513 83.5784 85.6513C82.6844 85.6513 81.957 86.3786 81.957 87.2726V88.8936H83.5784C84.4722 88.8936 85.1994 88.1664 85.1994 87.2726ZM81.5263 89.3243V87.2726C81.5263 86.1411 82.4469 85.2207 83.5784 85.2207C84.7096 85.2207 85.6301 86.1411 85.6301 87.2726C85.6301 88.404 84.7096 89.3243 83.5784 89.3243H81.5263Z" fill="#F35B70"/>
<path d="M81.948 89.3243H81.5263V83.4213L81.948 83.8428V89.3243Z" fill="#F35B70"/>
<path d="M85.6125 88.9024V89.3241H79.7094L80.131 88.9024H85.6125Z" fill="#F35B70"/>
<path d="M74.3536 87.1781V86.3617H74.7752V87.1781C74.7752 87.6449 74.9396 88.0426 75.2687 88.3713C75.5821 88.6851 75.9582 88.8492 76.397 88.8639C76.4186 88.8645 78.3779 88.8649 78.3996 88.8649C78.8662 88.8649 79.264 88.7004 79.5929 88.3713C79.9217 88.0426 80.0862 87.6449 80.0862 87.1781V86.7834L80.508 86.3617V87.1781C80.508 87.7602 80.3019 88.257 79.8902 88.6687C79.4783 89.0806 78.9815 89.2864 78.3996 89.2864C78.3735 89.2864 76.4094 89.2861 76.3836 89.2852C75.8352 89.2674 75.3644 89.062 74.9715 88.6687C74.5594 88.257 74.3536 87.7602 74.3536 87.1781Z" fill="#F35B70"/>
<path d="M77.2211 90.5529H77.6426V90.9744H77.2211V90.5529Z" fill="#F35B70"/>
<path d="M72.2626 85.1088H72.6841V85.5303H72.2626V85.1088Z" fill="#F35B70"/>
<path d="M66.3033 90.5529H66.7248V90.9744H66.3033V90.5529Z" fill="#F35B70"/>
<path d="M68.2954 90.9744H68.8632L69.2927 90.5529H68.2954H67.7275V90.9744H68.2954Z" fill="#F35B70"/>
<path d="M62.0795 90.974H62.6473L63.077 90.5525H62.0795H61.5116V90.974H62.0795Z" fill="#F35B70"/>
<path d="M61.0197 90.9738H59.1553C58.5324 90.9738 57.9471 90.7306 57.5073 90.2894C57.0675 89.8481 56.8266 89.2621 56.8289 88.6389C56.8335 87.3606 57.8772 86.321 59.1553 86.321H61.4783V89.1084L62.2157 89.105C63.069 89.105 63.7621 88.4117 63.7621 87.5596V86.3909H64.1928V87.5596C64.1928 88.6492 63.3063 89.5357 62.2168 89.5357L61.0477 89.5411V86.7515H59.1553C58.1139 86.7515 57.2633 87.5989 57.2596 88.6405C57.2576 89.1481 57.4541 89.6258 57.8122 89.9856C58.1707 90.3451 58.6476 90.5432 59.1553 90.5432H61.0197V90.9738Z" fill="#F35B70"/>
<path d="M67.7275 89.4344L68.156 89.0038L69.11 88.9992C69.9631 88.9992 70.6564 88.3059 70.6564 87.4538V86.3961H71.0871V87.4538C71.0871 88.5434 70.2006 89.4299 69.1109 89.4299L67.7275 89.4344Z" fill="#F35B70"/>
<path d="M66.5244 89.4343C66.0366 89.4343 65.5772 89.2461 65.229 88.9032C64.8765 88.5558 64.681 88.0921 64.6783 87.5973L64.6562 83.4169L65.0869 83.844L65.1089 87.5952C65.1111 87.9744 65.261 88.3303 65.5311 88.5965C65.8015 88.8628 66.1625 89.0062 66.5384 89.0038C66.9168 89.0002 67.2712 88.8493 67.5363 88.5791C67.8012 88.309 67.9451 87.9517 67.9413 87.5733L67.9269 86.3987L68.3576 86.3937L68.372 87.5687C68.3767 88.0626 68.1892 88.5282 67.8438 88.8806C67.4981 89.2331 67.036 89.4297 66.5427 89.4343H66.5244Z" fill="#F35B70"/>
<path d="M41.4638 87.2879C41.4638 86.8213 41.2994 86.4235 40.9704 86.0947C40.6415 85.7658 40.2439 85.6013 39.7771 85.6013C39.3105 85.6013 38.9127 85.7658 38.5839 86.0947C38.255 86.4235 38.0905 86.8213 38.0905 87.2879C38.0905 87.7546 38.255 88.1523 38.5839 88.4811C38.9127 88.8101 39.3105 88.9746 39.7771 88.9746C40.2439 88.9746 40.6415 88.8101 40.9704 88.4811C41.2994 88.1523 41.4638 87.7546 41.4638 87.2879ZM38.508 88.9746C38.432 88.9155 38.3576 88.8495 38.2844 88.7763C37.8743 88.3659 37.6689 87.8698 37.6689 87.2879C37.6689 86.706 37.8748 86.2092 38.2865 85.7973C38.6984 85.3856 39.1954 85.1797 39.7771 85.1797C40.3592 85.1797 40.856 85.3856 41.2677 85.7973C41.6796 86.2092 41.8855 86.706 41.8855 87.2879C41.8855 87.8698 41.6796 88.3667 41.2677 88.7785C40.856 89.1903 40.3592 89.3961 39.7771 89.3961H36.413L36.404 88.9746H38.508Z" fill="#F35B70"/>
<path d="M47.6708 89.4184C48.591 89.4184 49.3394 88.6699 49.3394 87.7498V87.1668L48.9189 87.296L48.9089 87.7498C48.9089 88.4325 48.3535 88.9879 47.6708 88.9879V89.4184Z" fill="#F35B70"/>
<path d="M36.2077 88.9103V86.3714H36.6294V88.9103C36.6294 89.492 36.4234 89.9888 36.0116 90.4008C35.5998 90.8124 35.103 91.0185 34.521 91.0185H33.6778L34.0995 90.5967H34.521C34.9877 90.5967 35.3854 90.4324 35.7143 90.1034C36.0432 89.7747 36.2077 89.3769 36.2077 88.9103Z" fill="#F35B70"/>
<path d="M54.9063 85.0917H55.3278V85.5132H54.9063V85.0917Z" fill="#F35B70"/>
<path d="M39.5671 83.4273H39.9888V83.8489H39.5671V83.4273Z" fill="#F35B70"/>
<path d="M50.2704 90.9913H50.8383L51.2678 90.5697H50.2704H49.7026V90.9913H50.2704Z" fill="#F35B70"/>
<path d="M46.2009 88.862V87.3997H46.6224V88.862C46.6224 89.4439 46.4166 89.9407 46.0046 90.3526C45.593 90.7643 45.0961 90.9703 44.5142 90.9703H43.671L44.0925 90.5486H44.5142C44.9809 90.5486 45.3784 90.3841 45.7074 90.0552C46.0364 89.7265 46.2009 89.3286 46.2009 88.862Z" fill="#F35B70"/>
<path d="M51.9736 89.3625L52.4021 88.9319L53.3561 88.9273C54.2092 88.9273 54.9025 88.234 54.9025 87.3819V86.3242H55.3332V87.3819C55.3332 88.4715 54.4467 89.358 53.357 89.358L51.9736 89.3625Z" fill="#F35B70"/>
<path d="M50.7709 89.3625C50.283 89.3625 49.8236 89.1744 49.4755 88.8314C49.123 88.4841 48.9275 88.0204 48.9248 87.5256L48.9027 83.3452L49.3334 83.7723L49.3554 87.5235C49.3575 87.9027 49.5075 88.2585 49.7776 88.5247C50.048 88.7911 50.409 88.9345 50.7849 88.9319C51.1635 88.9285 51.5177 88.7776 51.7828 88.5074C52.0478 88.2373 52.1915 87.88 52.1878 87.5016L52.1734 86.327L52.6041 86.322L52.6185 87.4968C52.6232 87.9909 52.4357 88.4565 52.0903 88.8089C51.7446 89.1613 51.2827 89.358 50.7892 89.3625H50.7709Z" fill="#F35B70"/>
<path d="M44.4979 85.5944C43.5598 85.5944 42.7963 86.3579 42.7963 87.296C42.7963 88.234 43.5598 88.9975 44.4979 88.9975H46.1991V87.296C46.1991 86.3579 45.436 85.5944 44.4979 85.5944ZM46.62 89.4184H44.4979C43.3276 89.4184 42.3755 88.4663 42.3755 87.296C42.3755 86.1256 43.3276 85.1735 44.4979 85.1735C45.6684 85.1735 46.62 86.1256 46.62 87.296V89.4184Z" fill="#F35B70"/>
<path d="M47.6761 89.4184H46.4091V88.9975H47.6761V89.4184Z" fill="#F35B70"/>
</svg>
