<svg width="20" height="20" viewBox="0 0 20 20" fill="none" xmlns="http://www.w3.org/2000/svg">
<path fill-rule="evenodd" clip-rule="evenodd" d="M9.42366 1.66666C11.462 1.66666 13.1203 3.32499 13.1203 5.36332V6.13999C13.1203 6.48499 12.8403 6.76499 12.4953 6.76499C12.1503 6.76499 11.8703 6.48499 11.8703 6.13999V5.36332C11.8703 4.01332 10.7728 2.91666 9.42366 2.91666H5.36116C4.01366 2.91666 2.91699 4.01332 2.91699 5.36332V14.6375C2.91699 15.9867 4.01366 17.0833 5.36116 17.0833H9.43283C10.7762 17.0833 11.8703 15.99 11.8703 14.6467V13.8608C11.8703 13.5158 12.1503 13.2358 12.4953 13.2358C12.8403 13.2358 13.1203 13.5158 13.1203 13.8608V14.6467C13.1203 16.68 11.4653 18.3333 9.43283 18.3333H5.36116C3.32449 18.3333 1.66699 16.6758 1.66699 14.6375V5.36332C1.66699 3.32499 3.32449 1.66666 5.36116 1.66666H9.42366ZM16.1571 7.12832L18.5971 9.55749C18.6188 9.57909 18.6383 9.60155 18.6562 9.62532L18.5971 9.55749C18.6266 9.5866 18.6529 9.61841 18.6756 9.65233C18.6857 9.6677 18.6953 9.68359 18.7043 9.69992C18.7116 9.71268 18.7183 9.726 18.7245 9.73954C18.7297 9.75151 18.7348 9.76348 18.7395 9.77563C18.7458 9.79147 18.7513 9.80775 18.7561 9.82425C18.7597 9.83724 18.7631 9.85021 18.766 9.86333C18.7697 9.87924 18.7726 9.89526 18.775 9.91139C18.7763 9.92188 18.7775 9.93288 18.7785 9.94396C18.7804 9.96296 18.7812 9.98144 18.7812 9.99999L18.777 10.0517L18.7753 10.0848C18.7751 10.0862 18.7749 10.0876 18.7747 10.089L18.7812 9.99999C18.7812 10.0462 18.7761 10.0921 18.7662 10.1366C18.7631 10.1498 18.7597 10.1627 18.756 10.1755C18.7513 10.1922 18.7458 10.2085 18.7396 10.2245C18.7348 10.2365 18.7297 10.2485 18.7243 10.2602C18.7183 10.274 18.7116 10.2873 18.7044 10.3004C18.6953 10.3164 18.6857 10.3323 18.6753 10.3477C18.6695 10.3568 18.6631 10.3658 18.6564 10.3747C18.6366 10.4008 18.6149 10.4254 18.5915 10.4481L16.1571 12.8725C16.0354 12.9942 15.8754 13.055 15.7162 13.055C15.5562 13.055 15.3954 12.9942 15.2737 12.8708C15.0304 12.6258 15.0312 12.2308 15.2754 11.9875L16.642 10.625H8.12183C7.77683 10.625 7.49683 10.345 7.49683 9.99999C7.49683 9.65499 7.77683 9.37499 8.12183 9.37499H16.6437L15.2754 8.01332C15.0312 7.76999 15.0296 7.37499 15.2737 7.12999C15.5171 6.88499 15.9121 6.88499 16.1571 7.12832Z" fill="#4E4E4E"/>
</svg>
