<svg width="20" height="20" viewBox="0 0 20 20" fill="none" xmlns="http://www.w3.org/2000/svg">
<path fill-rule="evenodd" clip-rule="evenodd" d="M11.6461 1.66699C11.6819 1.66699 11.7169 1.67001 11.7511 1.67579L11.8651 1.67649C12.0351 1.67649 12.1976 1.74566 12.316 1.86816L16.5368 6.26566C16.6485 6.38149 16.7111 6.53733 16.7111 6.69816V14.3365C16.726 16.4273 15.0976 18.1357 13.0035 18.2207L6.32098 18.2215H6.23014C4.18852 18.1754 2.55111 16.5242 2.50123 14.5025L2.50098 5.40899C2.54931 3.34149 4.25681 1.67649 6.30931 1.67649L11.541 1.67579C11.5752 1.67001 11.6103 1.66699 11.6461 1.66699ZM11.021 2.92616L6.31098 2.92649C4.93014 2.92649 3.78348 4.04483 3.75098 5.42399V14.3365C3.72014 15.764 4.84514 16.9398 6.25848 16.9715H12.9785C14.3693 16.914 15.471 15.7582 15.461 14.3415L15.461 7.48616L13.7861 7.48699C12.2611 7.48283 11.0211 6.23949 11.0211 4.71616L11.021 2.92616ZM11.4904 12.1737C11.8354 12.1737 12.1154 12.4537 12.1154 12.7987C12.1154 13.1437 11.8354 13.4237 11.4904 13.4237H6.99039C6.64539 13.4237 6.36539 13.1437 6.36539 12.7987C6.36539 12.4537 6.64539 12.1737 6.99039 12.1737H11.4904ZM9.78631 9.04708C10.1313 9.04708 10.4113 9.32708 10.4113 9.67208C10.4113 10.0171 10.1313 10.2971 9.78631 10.2971H6.98964C6.64464 10.2971 6.36464 10.0171 6.36464 9.67208C6.36464 9.32708 6.64464 9.04708 6.98964 9.04708H9.78631ZM12.271 3.62699L12.2711 4.71616C12.2711 5.55283 12.9519 6.23449 13.7877 6.23699L14.776 6.23616L12.271 3.62699Z" fill="#949494"/>
</svg>
