<svg width="18" height="16" viewBox="0 0 18 16" fill="none" xmlns="http://www.w3.org/2000/svg">
<path d="M13.9317 9.93339C13.7159 10.1426 13.6167 10.4451 13.6659 10.7417L14.4067 14.8417C14.4692 15.1892 14.3226 15.5409 14.0317 15.7417C13.7467 15.9501 13.3676 15.9751 13.0567 15.8084L9.36591 13.8834C9.23758 13.8151 9.09508 13.7784 8.94924 13.7742H8.72341C8.64508 13.7859 8.56841 13.8109 8.49841 13.8492L4.80675 15.7834C4.62425 15.8751 4.41758 15.9076 4.21508 15.8751C3.72175 15.7817 3.39258 15.3117 3.47341 14.8159L4.21508 10.7159C4.26425 10.4167 4.16508 10.1126 3.94925 9.90006L0.940079 6.98339C0.688412 6.73922 0.600912 6.37256 0.715912 6.04172C0.827579 5.71172 1.11258 5.47089 1.45675 5.41672L5.59841 4.81589C5.91341 4.78339 6.19008 4.59172 6.33175 4.30839L8.15674 0.566723C8.20008 0.483389 8.25591 0.406723 8.32341 0.341723L8.39841 0.283389C8.43758 0.240056 8.48258 0.204223 8.53258 0.175056L8.62341 0.141723L8.76508 0.0833893H9.11591C9.42924 0.115889 9.70508 0.303389 9.84924 0.583389L11.6984 4.30839C11.8317 4.58089 12.0909 4.77006 12.3901 4.81589L16.5317 5.41672C16.8817 5.46672 17.1742 5.70839 17.2901 6.04172C17.3992 6.37589 17.3051 6.74256 17.0484 6.98339L13.9317 9.93339Z" fill="#FFB800"/>
</svg>
